<svg 
          width="9.477286338806152" 
          height="10.281834602355957" fill="none" 
          xmlns="http://www.w3.org/2000/svg">
          <path d="M 3.3895829534058994 1.7520299590903616 C 3.9899548817745325 0.5840099455069891 4.28990376709053 0 4.7386427175014925 0 C 5.187381667912455 0 5.487330779179245 0.5840099455069891 6.087702707547878 1.7520299590903616 L 6.243126574915343 2.054316726733729 C 6.413713717483496 2.38642101210968 6.499007133426403 2.552473216082352 6.631686017383213 2.6619750885255 C 6.7643649013400236 2.7714769609686476 6.930213926413291 2.812090230041382 7.261911129244355 2.8933169750227026 L 7.5632815839671 2.9673464375351166 C 8.728960363272295 3.253696395521068 9.311326032967914 3.3966146069550502 9.450165013362168 3.880376393475292 C 9.5885301325802 4.363624093315275 9.191440511087915 4.867949622827004 8.396788748509952 5.876086564527855 L 8.191136472022029 6.136731851435034 C 7.965582365058873 6.423081809420985 7.852332131783929 6.566513510009431 7.801629843834841 6.743361610873409 C 7.750927555885753 6.9207237984176455 7.767986011005254 7.111966540825309 7.8021034366945 7.4939378470333295 L 7.833377737692174 7.841979033993742 C 7.9532625817197955 9.187361250442525 8.013442075540963 9.859795514502052 7.650470571712225 10.158483706025956 C 7.287499067883488 10.457686014872468 6.741620115636313 10.184702034792108 5.650810131201354 9.63976316726236 L 5.367919739840149 9.498901517045853 C 5.058019783945365 9.343645347855054 4.9030697636322005 9.26653151847283 4.7386427175014925 9.26653151847283 C 4.574215671370784 9.26653151847283 4.419265453350677 9.343645347855054 4.108891650401594 9.498901517045853 L 3.826949348562875 9.63976316726236 C 2.735665545317465 10.184702034792108 2.1897867907772324 10.457171621768726 1.8272891340027946 10.15899751692508 C 1.4638437548759082 9.859795208078568 1.5240230792339822 9.187361250442525 1.643907923261604 7.841979033993742 L 1.6751822242592773 7.494451657932452 C 1.709299649948523 7.111966234401824 1.7263583663236268 6.920724012914086 1.6751822242592773 6.7438759120501075 C 1.6249537904254518 6.566513724505871 1.5117030699441116 6.423081533639849 1.2861489629809562 6.1372456623341565 L 1.0804966864930337 5.876086564527855 C 0.2858449239150693 4.868463678864915 -0.11124413799595617 4.364138179995534 0.02712098122207465 3.880376393475292 C 0.16595996161632978 3.3966146069550502 0.7487993424427242 3.253182308840809 1.914478121747919 2.9673464375351166 L 2.2158488024214567 2.8933169750227026 C 2.547072158198221 2.812090230041382 2.7124469125594537 2.7714769609686476 2.845599643570564 2.6619750885255 C 2.9782785275273747 2.552473216082352 3.063571943470282 2.38642101210968 3.2341590860384346 2.054316726733729 L 3.3895829534058994 1.7520299590903616 Z" fill="rgb(255,229,0)"/>
        </svg>